%TF.GenerationSoftware,KiCad,Pcbnew,10.0.5*%
%TF.CreationDate,2026-09-06T01:11:44+10:00*%
%TF.ProjectId,First,46697273-742e-46b6-9963-61645f706362,rev?*%
%TF.SameCoordinates,Original*%
%TF.FileFunction,Soldermask,Bot*%
%TF.FilePolarity,Negative*%
%FSLAX46Y46*%
G04 Gerber Fmt 4.6, Leading zero omitted, Abs format (unit mm)*
G04 Created by KiCad (PCBNEW 10.0.5) date 2026-09-06 01:11:44*
%MOMM*%
%LPD*%
G01*
G04 APERTURE LIST*
G04 Aperture macros list*
%AMRoundRect*
0 Rectangle with rounded corners*
0 $1 Rounding radius*
0 $2 $3 $4 $5 $6 $7 $8 $9 X,Y pos of 4 corners*
0 Add a 4 corners polygon primitive as box body*
4,1,4,$2,$3,$4,$5,$6,$7,$8,$9,$2,$3,0*
0 Add four circle primitives for the rounded corners*
1,1,$1+$1,$2,$3*
1,1,$1+$1,$4,$5*
1,1,$1+$1,$6,$7*
1,1,$1+$1,$8,$9*
0 Add four rect primitives between the rounded corners*
20,1,$1+$1,$2,$3,$4,$5,0*
20,1,$1+$1,$4,$5,$6,$7,0*
20,1,$1+$1,$6,$7,$8,$9,0*
20,1,$1+$1,$8,$9,$2,$3,0*%
G04 Aperture macros list end*
%ADD10C,1.700000*%
%ADD11RoundRect,0.250000X0.600000X0.600000X-0.600000X0.600000X-0.600000X-0.600000X0.600000X-0.600000X0*%
%ADD12R,1.800000X1.800000*%
%ADD13C,1.800000*%
%ADD14RoundRect,0.250000X-0.550000X0.550000X-0.550000X-0.550000X0.550000X-0.550000X0.550000X0.550000X0*%
%ADD15C,1.600000*%
%ADD16R,2.000000X2.000000*%
%ADD17C,2.000000*%
%ADD18RoundRect,0.250000X-0.550000X-0.550000X0.550000X-0.550000X0.550000X0.550000X-0.550000X0.550000X0*%
%ADD19RoundRect,0.250000X0.550000X-0.550000X0.550000X0.550000X-0.550000X0.550000X-0.550000X-0.550000X0*%
%ADD20RoundRect,0.250000X0.550000X0.550000X-0.550000X0.550000X-0.550000X-0.550000X0.550000X-0.550000X0*%
%ADD21R,1.700000X1.700000*%
%ADD22R,3.500000X3.500000*%
%ADD23RoundRect,0.750000X-1.000000X0.750000X-1.000000X-0.750000X1.000000X-0.750000X1.000000X0.750000X0*%
%ADD24RoundRect,0.875000X-0.875000X0.875000X-0.875000X-0.875000X0.875000X-0.875000X0.875000X0.875000X0*%
G04 APERTURE END LIST*
D10*
%TO.C,J1*%
X128960000Y-58640000D03*
X131500000Y-58640000D03*
X128960000Y-61180000D03*
X131500000Y-61180000D03*
X128960000Y-63720000D03*
X131500000Y-63720000D03*
X128960000Y-66260000D03*
X131500000Y-66260000D03*
X128960000Y-68800000D03*
X131500000Y-68800000D03*
X128960000Y-71340000D03*
X131500000Y-71340000D03*
X128960000Y-73880000D03*
X131500000Y-73880000D03*
X128960000Y-76420000D03*
X131500000Y-76420000D03*
X128960000Y-78960000D03*
X131500000Y-78960000D03*
X128960000Y-81500000D03*
D11*
X131500000Y-81500000D03*
%TD*%
D12*
%TO.C,D66*%
X108598750Y-107750000D03*
D13*
X106058750Y-107750000D03*
%TD*%
D14*
%TO.C,D36*%
X83828750Y-66440000D03*
D15*
X83828750Y-74060000D03*
%TD*%
%TO.C,R36*%
X123638750Y-110750000D03*
X116018750Y-110750000D03*
%TD*%
D16*
%TO.C,K2*%
X56921250Y-37792500D03*
D17*
X56921250Y-40332500D03*
X56921250Y-47952500D03*
X62001250Y-47952500D03*
X62001250Y-40332500D03*
X62001250Y-37792500D03*
%TD*%
D15*
%TO.C,R18*%
X80828750Y-66440000D03*
X80828750Y-74060000D03*
%TD*%
D12*
%TO.C,D43*%
X108598750Y-82250000D03*
D13*
X106058750Y-82250000D03*
%TD*%
D15*
%TO.C,R15*%
X48828750Y-93560000D03*
X48828750Y-85940000D03*
%TD*%
%TO.C,R21*%
X96208750Y-78750000D03*
X103828750Y-78750000D03*
%TD*%
%TO.C,R4*%
X63638750Y-50750000D03*
X56018750Y-50750000D03*
%TD*%
D12*
%TO.C,D55*%
X51058750Y-112250000D03*
D13*
X53598750Y-112250000D03*
%TD*%
D12*
%TO.C,D6*%
X51058750Y-47750000D03*
D13*
X53598750Y-47750000D03*
%TD*%
D12*
%TO.C,D30*%
X51058750Y-77750000D03*
D13*
X53598750Y-77750000D03*
%TD*%
D15*
%TO.C,R30*%
X80828750Y-96440000D03*
X80828750Y-104060000D03*
%TD*%
%TO.C,R35*%
X108828750Y-123560000D03*
X108828750Y-115940000D03*
%TD*%
D12*
%TO.C,D62*%
X81058750Y-107750000D03*
D13*
X83598750Y-107750000D03*
%TD*%
D18*
%TO.C,D41*%
X96208750Y-75750000D03*
D15*
X103828750Y-75750000D03*
%TD*%
D16*
%TO.C,K29*%
X67871250Y-102657498D03*
D17*
X70411250Y-102657498D03*
X78031250Y-102657498D03*
X78031250Y-97577498D03*
X70411250Y-97577498D03*
X67871250Y-97577498D03*
%TD*%
D12*
%TO.C,D39*%
X81058750Y-82250000D03*
D13*
X83598750Y-82250000D03*
%TD*%
D19*
%TO.C,D20*%
X105828750Y-63560000D03*
D15*
X105828750Y-55940000D03*
%TD*%
%TO.C,R11*%
X96208750Y-48750000D03*
X103828750Y-48750000D03*
%TD*%
%TO.C,R12*%
X110828750Y-36440000D03*
X110828750Y-44060000D03*
%TD*%
D12*
%TO.C,D31*%
X51058750Y-82250000D03*
D13*
X53598750Y-82250000D03*
%TD*%
D18*
%TO.C,D9*%
X66208750Y-45750000D03*
D15*
X73828750Y-45750000D03*
%TD*%
D12*
%TO.C,D47*%
X111058750Y-82250000D03*
D13*
X113598750Y-82250000D03*
%TD*%
D15*
%TO.C,R34*%
X110828750Y-96440000D03*
X110828750Y-104060000D03*
%TD*%
D16*
%TO.C,K4*%
X51871250Y-61657500D03*
D17*
X54411250Y-61657500D03*
X62031250Y-61657500D03*
X62031250Y-56577500D03*
X54411250Y-56577500D03*
X51871250Y-56577500D03*
%TD*%
D20*
%TO.C,D53*%
X63638750Y-113750000D03*
D15*
X56018750Y-113750000D03*
%TD*%
D20*
%TO.C,D69*%
X123638750Y-113750000D03*
D15*
X116018750Y-113750000D03*
%TD*%
D16*
%TO.C,K34*%
X116921250Y-97792500D03*
D17*
X116921250Y-100332500D03*
X116921250Y-107952500D03*
X122001250Y-107952500D03*
X122001250Y-100332500D03*
X122001250Y-97792500D03*
%TD*%
D16*
%TO.C,K31*%
X67921250Y-111792500D03*
D17*
X67921250Y-114332500D03*
X67921250Y-121952500D03*
X73001250Y-121952500D03*
X73001250Y-114332500D03*
X73001250Y-111792500D03*
%TD*%
D16*
%TO.C,K18*%
X86921250Y-67792500D03*
D17*
X86921250Y-70332500D03*
X86921250Y-77952500D03*
X92001250Y-77952500D03*
X92001250Y-70332500D03*
X92001250Y-67792500D03*
%TD*%
D19*
%TO.C,D32*%
X45828750Y-93560000D03*
D15*
X45828750Y-85940000D03*
%TD*%
D12*
%TO.C,D70*%
X111058750Y-107750000D03*
D13*
X113598750Y-107750000D03*
%TD*%
D15*
%TO.C,R25*%
X36208750Y-108750000D03*
X43828750Y-108750000D03*
%TD*%
D16*
%TO.C,K15*%
X37921250Y-81792500D03*
D17*
X37921250Y-84332500D03*
X37921250Y-91952500D03*
X43001250Y-91952500D03*
X43001250Y-84332500D03*
X43001250Y-81792500D03*
%TD*%
D18*
%TO.C,D1*%
X36208750Y-45750000D03*
D15*
X43828750Y-45750000D03*
%TD*%
D12*
%TO.C,D42*%
X108598750Y-77750000D03*
D13*
X106058750Y-77750000D03*
%TD*%
D12*
%TO.C,D54*%
X51058750Y-107750000D03*
D13*
X53598750Y-107750000D03*
%TD*%
D15*
%TO.C,R32*%
X93638750Y-110750000D03*
X86018750Y-110750000D03*
%TD*%
%TO.C,R20*%
X93638750Y-80750000D03*
X86018750Y-80750000D03*
%TD*%
%TO.C,R22*%
X110828750Y-66440000D03*
X110828750Y-74060000D03*
%TD*%
%TO.C,R6*%
X80828750Y-36440000D03*
X80828750Y-44060000D03*
%TD*%
%TO.C,R16*%
X63638750Y-80750000D03*
X56018750Y-80750000D03*
%TD*%
D16*
%TO.C,K1*%
X37871250Y-42657498D03*
D17*
X40411250Y-42657498D03*
X48031250Y-42657498D03*
X48031250Y-37577498D03*
X40411250Y-37577498D03*
X37871250Y-37577498D03*
%TD*%
D19*
%TO.C,D72*%
X105828750Y-123560000D03*
D15*
X105828750Y-115940000D03*
%TD*%
D14*
%TO.C,D24*%
X113828750Y-36440000D03*
D15*
X113828750Y-44060000D03*
%TD*%
D12*
%TO.C,D71*%
X111058750Y-112250000D03*
D13*
X113598750Y-112250000D03*
%TD*%
D18*
%TO.C,D65*%
X96208750Y-105750000D03*
D15*
X103828750Y-105750000D03*
%TD*%
D12*
%TO.C,D18*%
X111058750Y-47750000D03*
D13*
X113598750Y-47750000D03*
%TD*%
D16*
%TO.C,K21*%
X97871250Y-72657498D03*
D17*
X100411250Y-72657498D03*
X108031250Y-72657498D03*
X108031250Y-67577498D03*
X100411250Y-67577498D03*
X97871250Y-67577498D03*
%TD*%
D12*
%TO.C,D10*%
X78598750Y-47750000D03*
D13*
X76058750Y-47750000D03*
%TD*%
D12*
%TO.C,D51*%
X48598750Y-112250000D03*
D13*
X46058750Y-112250000D03*
%TD*%
D12*
%TO.C,D11*%
X78598750Y-52250000D03*
D13*
X76058750Y-52250000D03*
%TD*%
D15*
%TO.C,R24*%
X123638750Y-80750000D03*
X116018750Y-80750000D03*
%TD*%
%TO.C,R10*%
X123638750Y-50750000D03*
X116018750Y-50750000D03*
%TD*%
%TO.C,R29*%
X66208750Y-108750000D03*
X73828750Y-108750000D03*
%TD*%
D12*
%TO.C,D22*%
X108598750Y-47750000D03*
D13*
X106058750Y-47750000D03*
%TD*%
D16*
%TO.C,K36*%
X111871250Y-121657500D03*
D17*
X114411250Y-121657500D03*
X122031250Y-121657500D03*
X122031250Y-116577500D03*
X114411250Y-116577500D03*
X111871250Y-116577500D03*
%TD*%
D15*
%TO.C,R13*%
X36208750Y-78750000D03*
X43828750Y-78750000D03*
%TD*%
D16*
%TO.C,K5*%
X67871250Y-42657498D03*
D17*
X70411250Y-42657498D03*
X78031250Y-42657498D03*
X78031250Y-37577498D03*
X70411250Y-37577498D03*
X67871250Y-37577498D03*
%TD*%
D19*
%TO.C,D56*%
X45828750Y-123560000D03*
D15*
X45828750Y-115940000D03*
%TD*%
D12*
%TO.C,D63*%
X81058750Y-112250000D03*
D13*
X83598750Y-112250000D03*
%TD*%
D16*
%TO.C,K28*%
X51871250Y-121657500D03*
D17*
X54411250Y-121657500D03*
X62031250Y-121657500D03*
X62031250Y-116577500D03*
X54411250Y-116577500D03*
X51871250Y-116577500D03*
%TD*%
D20*
%TO.C,D61*%
X93638750Y-113750000D03*
D15*
X86018750Y-113750000D03*
%TD*%
D21*
%TO.C,J4*%
X37560000Y-131500000D03*
D10*
X37560000Y-128960000D03*
X40100000Y-131500000D03*
X40100000Y-128960000D03*
X42640000Y-131500000D03*
X42640000Y-128960000D03*
X45180000Y-131500000D03*
X45180000Y-128960000D03*
X47720000Y-131500000D03*
X47720000Y-128960000D03*
X50260000Y-131500000D03*
X50260000Y-128960000D03*
X52800000Y-131500000D03*
X52800000Y-128960000D03*
X55340000Y-131500000D03*
X55340000Y-128960000D03*
X57880000Y-131500000D03*
X57880000Y-128960000D03*
X60420000Y-131500000D03*
X60420000Y-128960000D03*
X62960000Y-131500000D03*
X62960000Y-128960000D03*
X65500000Y-131500000D03*
X65500000Y-128960000D03*
X68040000Y-131500000D03*
X68040000Y-128960000D03*
X70580000Y-131500000D03*
X70580000Y-128960000D03*
X73120000Y-131500000D03*
X73120000Y-128960000D03*
X75660000Y-131500000D03*
X75660000Y-128960000D03*
X78200000Y-131500000D03*
X78200000Y-128960000D03*
X80740000Y-131500000D03*
X80740000Y-128960000D03*
X83280000Y-131500000D03*
X83280000Y-128960000D03*
%TD*%
D16*
%TO.C,K12*%
X116921250Y-37792500D03*
D17*
X116921250Y-40332500D03*
X116921250Y-47952500D03*
X122001250Y-47952500D03*
X122001250Y-40332500D03*
X122001250Y-37792500D03*
%TD*%
D12*
%TO.C,D27*%
X48598750Y-82250000D03*
D13*
X46058750Y-82250000D03*
%TD*%
D14*
%TO.C,D12*%
X83828750Y-36440000D03*
D15*
X83828750Y-44060000D03*
%TD*%
D16*
%TO.C,K30*%
X86921250Y-97792500D03*
D17*
X86921250Y-100332500D03*
X86921250Y-107952500D03*
X92001250Y-107952500D03*
X92001250Y-100332500D03*
X92001250Y-97792500D03*
%TD*%
D15*
%TO.C,R19*%
X78828750Y-93560000D03*
X78828750Y-85940000D03*
%TD*%
D12*
%TO.C,D38*%
X81058750Y-77750000D03*
D13*
X83598750Y-77750000D03*
%TD*%
D16*
%TO.C,K19*%
X67921250Y-81792500D03*
D17*
X67921250Y-84332500D03*
X67921250Y-91952500D03*
X73001250Y-91952500D03*
X73001250Y-84332500D03*
X73001250Y-81792500D03*
%TD*%
D16*
%TO.C,K10*%
X111871250Y-61657500D03*
D17*
X114411250Y-61657500D03*
X122031250Y-61657500D03*
X122031250Y-56577500D03*
X114411250Y-56577500D03*
X111871250Y-56577500D03*
%TD*%
D15*
%TO.C,R1*%
X36208750Y-48750000D03*
X43828750Y-48750000D03*
%TD*%
D16*
%TO.C,K24*%
X111871250Y-91657500D03*
D17*
X114411250Y-91657500D03*
X122031250Y-91657500D03*
X122031250Y-86577500D03*
X114411250Y-86577500D03*
X111871250Y-86577500D03*
%TD*%
D20*
%TO.C,D45*%
X123638750Y-83750000D03*
D15*
X116018750Y-83750000D03*
%TD*%
D16*
%TO.C,K22*%
X116921250Y-67792500D03*
D17*
X116921250Y-70332500D03*
X116921250Y-77952500D03*
X122001250Y-77952500D03*
X122001250Y-70332500D03*
X122001250Y-67792500D03*
%TD*%
D19*
%TO.C,D16*%
X75828750Y-63560000D03*
D15*
X75828750Y-55940000D03*
%TD*%
D12*
%TO.C,D58*%
X78598750Y-107750000D03*
D13*
X76058750Y-107750000D03*
%TD*%
D15*
%TO.C,R27*%
X48828750Y-123560000D03*
X48828750Y-115940000D03*
%TD*%
D14*
%TO.C,D60*%
X83828750Y-96440000D03*
D15*
X83828750Y-104060000D03*
%TD*%
%TO.C,R23*%
X108828750Y-93560000D03*
X108828750Y-85940000D03*
%TD*%
D16*
%TO.C,K20*%
X81871250Y-91657500D03*
D17*
X84411250Y-91657500D03*
X92031250Y-91657500D03*
X92031250Y-86577500D03*
X84411250Y-86577500D03*
X81871250Y-86577500D03*
%TD*%
D14*
%TO.C,D28*%
X53828750Y-66440000D03*
D15*
X53828750Y-74060000D03*
%TD*%
%TO.C,R8*%
X93638750Y-50750000D03*
X86018750Y-50750000D03*
%TD*%
D16*
%TO.C,K9*%
X97921250Y-51792500D03*
D17*
X97921250Y-54332500D03*
X97921250Y-61952500D03*
X103001250Y-61952500D03*
X103001250Y-54332500D03*
X103001250Y-51792500D03*
%TD*%
D16*
%TO.C,K7*%
X67921250Y-51792500D03*
D17*
X67921250Y-54332500D03*
X67921250Y-61952500D03*
X73001250Y-61952500D03*
X73001250Y-54332500D03*
X73001250Y-51792500D03*
%TD*%
D20*
%TO.C,D13*%
X93638750Y-53750000D03*
D15*
X86018750Y-53750000D03*
%TD*%
D16*
%TO.C,K8*%
X81871250Y-61657500D03*
D17*
X84411250Y-61657500D03*
X92031250Y-61657500D03*
X92031250Y-56577500D03*
X84411250Y-56577500D03*
X81871250Y-56577500D03*
%TD*%
D18*
%TO.C,D25*%
X36208750Y-75750000D03*
D15*
X43828750Y-75750000D03*
%TD*%
D12*
%TO.C,D67*%
X108598750Y-112250000D03*
D13*
X106058750Y-112250000D03*
%TD*%
D12*
%TO.C,D7*%
X51058750Y-52250000D03*
D13*
X53598750Y-52250000D03*
%TD*%
D15*
%TO.C,R26*%
X50828750Y-96440000D03*
X50828750Y-104060000D03*
%TD*%
D16*
%TO.C,K25*%
X37871250Y-102657498D03*
D17*
X40411250Y-102657498D03*
X48031250Y-102657498D03*
X48031250Y-97577498D03*
X40411250Y-97577498D03*
X37871250Y-97577498D03*
%TD*%
D14*
%TO.C,D68*%
X113828750Y-96440000D03*
D15*
X113828750Y-104060000D03*
%TD*%
D18*
%TO.C,D57*%
X66208750Y-105750000D03*
D15*
X73828750Y-105750000D03*
%TD*%
D20*
%TO.C,D37*%
X93638750Y-83750000D03*
D15*
X86018750Y-83750000D03*
%TD*%
D12*
%TO.C,D2*%
X48598750Y-47750000D03*
D13*
X46058750Y-47750000D03*
%TD*%
D14*
%TO.C,D52*%
X53828750Y-96440000D03*
D15*
X53828750Y-104060000D03*
%TD*%
%TO.C,R2*%
X50828750Y-36440000D03*
X50828750Y-44060000D03*
%TD*%
D18*
%TO.C,D21*%
X96208750Y-45750000D03*
D15*
X103828750Y-45750000D03*
%TD*%
D20*
%TO.C,D29*%
X63638750Y-83750000D03*
D15*
X56018750Y-83750000D03*
%TD*%
D12*
%TO.C,D3*%
X48598750Y-52250000D03*
D13*
X46058750Y-52250000D03*
%TD*%
D16*
%TO.C,K32*%
X81871250Y-121657500D03*
D17*
X84411250Y-121657500D03*
X92031250Y-121657500D03*
X92031250Y-116577500D03*
X84411250Y-116577500D03*
X81871250Y-116577500D03*
%TD*%
D16*
%TO.C,K3*%
X37921250Y-51792500D03*
D17*
X37921250Y-54332500D03*
X37921250Y-61952500D03*
X43001250Y-61952500D03*
X43001250Y-54332500D03*
X43001250Y-51792500D03*
%TD*%
D15*
%TO.C,R33*%
X96208750Y-108750000D03*
X103828750Y-108750000D03*
%TD*%
D16*
%TO.C,K27*%
X37921250Y-111792500D03*
D17*
X37921250Y-114332500D03*
X37921250Y-121952500D03*
X43001250Y-121952500D03*
X43001250Y-114332500D03*
X43001250Y-111792500D03*
%TD*%
D12*
%TO.C,D15*%
X81058750Y-52250000D03*
D13*
X83598750Y-52250000D03*
%TD*%
D19*
%TO.C,D48*%
X105828750Y-93560000D03*
D15*
X105828750Y-85940000D03*
%TD*%
%TO.C,R7*%
X78828750Y-63560000D03*
X78828750Y-55940000D03*
%TD*%
D16*
%TO.C,K17*%
X67871250Y-72657498D03*
D17*
X70411250Y-72657498D03*
X78031250Y-72657498D03*
X78031250Y-67577498D03*
X70411250Y-67577498D03*
X67871250Y-67577498D03*
%TD*%
D15*
%TO.C,R14*%
X50828750Y-66440000D03*
X50828750Y-74060000D03*
%TD*%
D16*
%TO.C,K16*%
X51871250Y-91657500D03*
D17*
X54411250Y-91657500D03*
X62031250Y-91657500D03*
X62031250Y-86577500D03*
X54411250Y-86577500D03*
X51871250Y-86577500D03*
%TD*%
D16*
%TO.C,K14*%
X56921250Y-67792500D03*
D17*
X56921250Y-70332500D03*
X56921250Y-77952500D03*
X62001250Y-77952500D03*
X62001250Y-70332500D03*
X62001250Y-67792500D03*
%TD*%
D15*
%TO.C,R3*%
X48828750Y-63560000D03*
X48828750Y-55940000D03*
%TD*%
D12*
%TO.C,D26*%
X48598750Y-77750000D03*
D13*
X46058750Y-77750000D03*
%TD*%
D20*
%TO.C,D17*%
X123638750Y-53750000D03*
D15*
X116018750Y-53750000D03*
%TD*%
D16*
%TO.C,K33*%
X97871250Y-102657498D03*
D17*
X100411250Y-102657498D03*
X108031250Y-102657498D03*
X108031250Y-97577498D03*
X100411250Y-97577498D03*
X97871250Y-97577498D03*
%TD*%
D14*
%TO.C,D44*%
X113828750Y-66440000D03*
D15*
X113828750Y-74060000D03*
%TD*%
D16*
%TO.C,K11*%
X97871250Y-42657498D03*
D17*
X100411250Y-42657498D03*
X108031250Y-42657498D03*
X108031250Y-37577498D03*
X100411250Y-37577498D03*
X97871250Y-37577498D03*
%TD*%
D16*
%TO.C,K26*%
X56921250Y-97792500D03*
D17*
X56921250Y-100332500D03*
X56921250Y-107952500D03*
X62001250Y-107952500D03*
X62001250Y-100332500D03*
X62001250Y-97792500D03*
%TD*%
D19*
%TO.C,D64*%
X75828750Y-123560000D03*
D15*
X75828750Y-115940000D03*
%TD*%
D12*
%TO.C,D23*%
X108598750Y-52250000D03*
D13*
X106058750Y-52250000D03*
%TD*%
D12*
%TO.C,D46*%
X111058750Y-77750000D03*
D13*
X113598750Y-77750000D03*
%TD*%
D16*
%TO.C,K6*%
X86921250Y-37792500D03*
D17*
X86921250Y-40332500D03*
X86921250Y-47952500D03*
X92001250Y-47952500D03*
X92001250Y-40332500D03*
X92001250Y-37792500D03*
%TD*%
D15*
%TO.C,R17*%
X66208750Y-78750000D03*
X73828750Y-78750000D03*
%TD*%
D14*
%TO.C,D4*%
X53828750Y-36440000D03*
D15*
X53828750Y-44060000D03*
%TD*%
%TO.C,R9*%
X108828750Y-63560000D03*
X108828750Y-55940000D03*
%TD*%
D19*
%TO.C,D40*%
X75828750Y-93560000D03*
D15*
X75828750Y-85940000D03*
%TD*%
D12*
%TO.C,D34*%
X78598750Y-77750000D03*
D13*
X76058750Y-77750000D03*
%TD*%
D15*
%TO.C,R5*%
X66208750Y-48750000D03*
X73828750Y-48750000D03*
%TD*%
D12*
%TO.C,D50*%
X48598750Y-107750000D03*
D13*
X46058750Y-107750000D03*
%TD*%
D12*
%TO.C,D59*%
X78598750Y-112250000D03*
D13*
X76058750Y-112250000D03*
%TD*%
D16*
%TO.C,K13*%
X37871250Y-72657498D03*
D17*
X40411250Y-72657498D03*
X48031250Y-72657498D03*
X48031250Y-67577498D03*
X40411250Y-67577498D03*
X37871250Y-67577498D03*
%TD*%
D20*
%TO.C,D5*%
X63638750Y-53750000D03*
D15*
X56018750Y-53750000D03*
%TD*%
D16*
%TO.C,K35*%
X97921250Y-111792500D03*
D17*
X97921250Y-114332500D03*
X97921250Y-121952500D03*
X103001250Y-121952500D03*
X103001250Y-114332500D03*
X103001250Y-111792500D03*
%TD*%
D15*
%TO.C,R28*%
X63638750Y-110750000D03*
X56018750Y-110750000D03*
%TD*%
D22*
%TO.C,J5*%
X130500000Y-49000000D03*
D23*
X130500000Y-43000000D03*
D24*
X125800000Y-46000000D03*
%TD*%
D12*
%TO.C,D19*%
X111058750Y-52250000D03*
D13*
X113598750Y-52250000D03*
%TD*%
D15*
%TO.C,R31*%
X78828750Y-123560000D03*
X78828750Y-115940000D03*
%TD*%
D12*
%TO.C,D35*%
X78598750Y-82250000D03*
D13*
X76058750Y-82250000D03*
%TD*%
D18*
%TO.C,D33*%
X66208750Y-75750000D03*
D15*
X73828750Y-75750000D03*
%TD*%
D18*
%TO.C,D49*%
X36208750Y-105750000D03*
D15*
X43828750Y-105750000D03*
%TD*%
D16*
%TO.C,K23*%
X97921250Y-81792500D03*
D17*
X97921250Y-84332500D03*
X97921250Y-91952500D03*
X103001250Y-91952500D03*
X103001250Y-84332500D03*
X103001250Y-81792500D03*
%TD*%
D12*
%TO.C,D14*%
X81058750Y-47750000D03*
D13*
X83598750Y-47750000D03*
%TD*%
D19*
%TO.C,D8*%
X45828750Y-63560000D03*
D15*
X45828750Y-55940000D03*
%TD*%
M02*
