%TF.GenerationSoftware,KiCad,Pcbnew,10.0.5*%
%TF.CreationDate,2026-09-06T01:11:44+10:00*%
%TF.ProjectId,First,46697273-742e-46b6-9963-61645f706362,rev?*%
%TF.SameCoordinates,Original*%
%TF.FileFunction,Legend,Bot*%
%TF.FilePolarity,Positive*%
%FSLAX46Y46*%
G04 Gerber Fmt 4.6, Leading zero omitted, Abs format (unit mm)*
G04 Created by KiCad (PCBNEW 10.0.5) date 2026-09-06 01:11:44*
%MOMM*%
%LPD*%
G01*
G04 APERTURE LIST*
%ADD10C,0.100000*%
G04 APERTURE END LIST*
D10*
X132291353Y-131872419D02*
X132053258Y-132872419D01*
X132053258Y-132872419D02*
X131862782Y-132158133D01*
X131862782Y-132158133D02*
X131672306Y-132872419D01*
X131672306Y-132872419D02*
X131434211Y-131872419D01*
X130624687Y-132872419D02*
X130624687Y-132348609D01*
X130624687Y-132348609D02*
X130672306Y-132253371D01*
X130672306Y-132253371D02*
X130767544Y-132205752D01*
X130767544Y-132205752D02*
X130958020Y-132205752D01*
X130958020Y-132205752D02*
X131053258Y-132253371D01*
X130624687Y-132824800D02*
X130719925Y-132872419D01*
X130719925Y-132872419D02*
X130958020Y-132872419D01*
X130958020Y-132872419D02*
X131053258Y-132824800D01*
X131053258Y-132824800D02*
X131100877Y-132729561D01*
X131100877Y-132729561D02*
X131100877Y-132634323D01*
X131100877Y-132634323D02*
X131053258Y-132539085D01*
X131053258Y-132539085D02*
X130958020Y-132491466D01*
X130958020Y-132491466D02*
X130719925Y-132491466D01*
X130719925Y-132491466D02*
X130624687Y-132443847D01*
X130243734Y-132205752D02*
X130005639Y-132872419D01*
X129767544Y-132205752D02*
X130005639Y-132872419D01*
X130005639Y-132872419D02*
X130100877Y-133110514D01*
X130100877Y-133110514D02*
X130148496Y-133158133D01*
X130148496Y-133158133D02*
X130243734Y-133205752D01*
X129481829Y-131872419D02*
X129243734Y-132872419D01*
X129243734Y-132872419D02*
X129053258Y-132158133D01*
X129053258Y-132158133D02*
X128862782Y-132872419D01*
X128862782Y-132872419D02*
X128624687Y-131872419D01*
X127815163Y-132872419D02*
X127815163Y-132348609D01*
X127815163Y-132348609D02*
X127862782Y-132253371D01*
X127862782Y-132253371D02*
X127958020Y-132205752D01*
X127958020Y-132205752D02*
X128148496Y-132205752D01*
X128148496Y-132205752D02*
X128243734Y-132253371D01*
X127815163Y-132824800D02*
X127910401Y-132872419D01*
X127910401Y-132872419D02*
X128148496Y-132872419D01*
X128148496Y-132872419D02*
X128243734Y-132824800D01*
X128243734Y-132824800D02*
X128291353Y-132729561D01*
X128291353Y-132729561D02*
X128291353Y-132634323D01*
X128291353Y-132634323D02*
X128243734Y-132539085D01*
X128243734Y-132539085D02*
X128148496Y-132491466D01*
X128148496Y-132491466D02*
X127910401Y-132491466D01*
X127910401Y-132491466D02*
X127815163Y-132443847D01*
X127434210Y-132205752D02*
X127196115Y-132872419D01*
X126958020Y-132205752D02*
X127196115Y-132872419D01*
X127196115Y-132872419D02*
X127291353Y-133110514D01*
X127291353Y-133110514D02*
X127338972Y-133158133D01*
X127338972Y-133158133D02*
X127434210Y-133205752D01*
X126672305Y-131872419D02*
X126434210Y-132872419D01*
X126434210Y-132872419D02*
X126243734Y-132158133D01*
X126243734Y-132158133D02*
X126053258Y-132872419D01*
X126053258Y-132872419D02*
X125815163Y-131872419D01*
X125005639Y-132872419D02*
X125005639Y-132348609D01*
X125005639Y-132348609D02*
X125053258Y-132253371D01*
X125053258Y-132253371D02*
X125148496Y-132205752D01*
X125148496Y-132205752D02*
X125338972Y-132205752D01*
X125338972Y-132205752D02*
X125434210Y-132253371D01*
X125005639Y-132824800D02*
X125100877Y-132872419D01*
X125100877Y-132872419D02*
X125338972Y-132872419D01*
X125338972Y-132872419D02*
X125434210Y-132824800D01*
X125434210Y-132824800D02*
X125481829Y-132729561D01*
X125481829Y-132729561D02*
X125481829Y-132634323D01*
X125481829Y-132634323D02*
X125434210Y-132539085D01*
X125434210Y-132539085D02*
X125338972Y-132491466D01*
X125338972Y-132491466D02*
X125100877Y-132491466D01*
X125100877Y-132491466D02*
X125005639Y-132443847D01*
X124624686Y-132205752D02*
X124386591Y-132872419D01*
X124148496Y-132205752D02*
X124386591Y-132872419D01*
X124386591Y-132872419D02*
X124481829Y-133110514D01*
X124481829Y-133110514D02*
X124529448Y-133158133D01*
X124529448Y-133158133D02*
X124624686Y-133205752D01*
X40878931Y-35597907D02*
X40736074Y-35645526D01*
X40736074Y-35645526D02*
X40688455Y-35693145D01*
X40688455Y-35693145D02*
X40640836Y-35788383D01*
X40640836Y-35788383D02*
X40640836Y-35931240D01*
X40640836Y-35931240D02*
X40688455Y-36026478D01*
X40688455Y-36026478D02*
X40736074Y-36074098D01*
X40736074Y-36074098D02*
X40831312Y-36121717D01*
X40831312Y-36121717D02*
X41212264Y-36121717D01*
X41212264Y-36121717D02*
X41212264Y-35121717D01*
X41212264Y-35121717D02*
X40878931Y-35121717D01*
X40878931Y-35121717D02*
X40783693Y-35169336D01*
X40783693Y-35169336D02*
X40736074Y-35216955D01*
X40736074Y-35216955D02*
X40688455Y-35312193D01*
X40688455Y-35312193D02*
X40688455Y-35407431D01*
X40688455Y-35407431D02*
X40736074Y-35502669D01*
X40736074Y-35502669D02*
X40783693Y-35550288D01*
X40783693Y-35550288D02*
X40878931Y-35597907D01*
X40878931Y-35597907D02*
X41212264Y-35597907D01*
X40259883Y-35836002D02*
X39783693Y-35836002D01*
X40355121Y-36121717D02*
X40021788Y-35121717D01*
X40021788Y-35121717D02*
X39688455Y-36121717D01*
X38783693Y-36026478D02*
X38831312Y-36074098D01*
X38831312Y-36074098D02*
X38974169Y-36121717D01*
X38974169Y-36121717D02*
X39069407Y-36121717D01*
X39069407Y-36121717D02*
X39212264Y-36074098D01*
X39212264Y-36074098D02*
X39307502Y-35978859D01*
X39307502Y-35978859D02*
X39355121Y-35883621D01*
X39355121Y-35883621D02*
X39402740Y-35693145D01*
X39402740Y-35693145D02*
X39402740Y-35550288D01*
X39402740Y-35550288D02*
X39355121Y-35359812D01*
X39355121Y-35359812D02*
X39307502Y-35264574D01*
X39307502Y-35264574D02*
X39212264Y-35169336D01*
X39212264Y-35169336D02*
X39069407Y-35121717D01*
X39069407Y-35121717D02*
X38974169Y-35121717D01*
X38974169Y-35121717D02*
X38831312Y-35169336D01*
X38831312Y-35169336D02*
X38783693Y-35216955D01*
X38355121Y-36121717D02*
X38355121Y-35121717D01*
X37783693Y-36121717D02*
X38212264Y-35550288D01*
X37783693Y-35121717D02*
X38355121Y-35693145D01*
M02*
