M48
; DRILL file KiCad 10.0.5 date 2026-09-30T15:50:26
; FORMAT={-:-/ absolute / metric / decimal}
; #@! TF.CreationDate,2026-09-30T15:50:26+10:00
; #@! TF.GenerationSoftware,Kicad,Pcbnew,10.0.5
; #@! TF.FileFunction,Plated,1,2,PTH
FMAT,2
METRIC
; #@! TA.AperFunction,Plated,PTH,ViaDrill
T1C0.300
; #@! TA.AperFunction,Plated,PTH,ViaDrill
T2C0.400
; #@! TA.AperFunction,Plated,PTH,ComponentDrill
T3C0.710
; #@! TA.AperFunction,Plated,PTH,ComponentDrill
T4C0.800
; #@! TA.AperFunction,Plated,PTH,ComponentDrill
T5C0.900
; #@! TA.AperFunction,Plated,PTH,ComponentDrill
T6C1.000
; #@! TA.AperFunction,Plated,PTH,ComponentDrill
T7C1.700
; #@! TA.AperFunction,Plated,PTH,ComponentDrill
T8C1.854
%
G90
G05
T1
X52.5Y-68.5
X53.5Y-51.5
X59.5Y-128.0
X60.5Y-128.0
X66.5Y-67.5
X69.0Y-131.0
X74.0Y-134.5
X75.0Y-61.0
X76.5Y-132.0
X78.5Y-104.0
X82.5Y-58.5
X85.0Y-57.92
X87.5Y-87.5
X93.0Y-63.5
X93.0Y-92.5
X93.0Y-128.0
X93.5Y-55.5
X93.5Y-78.5
X94.625Y-137.0
X96.0Y-139.0
X96.5Y-121.821
X98.5Y-127.0
X101.5Y-145.0
X102.5Y-146.995
X103.5Y-123.5
X104.5Y-120.915
X105.5Y-62.5
X105.5Y-91.5
X111.0Y-111.5
X111.0Y-135.21
X111.0Y-146.5
X111.5Y-115.0
X111.5Y-138.5
X111.536Y-143.245
X112.0Y-133.5
X117.5Y-136.0
X118.0Y-129.4
X118.31Y-133.19
X118.5Y-93.0
X118.5Y-137.5
X119.0Y-109.5
X120.5Y-95.0
X120.5Y-135.5
X121.0Y-133.0
X132.5Y-55.0
X137.5Y-128.5
T2
X83.5Y-82.5
X84.0Y-81.5
X85.0Y-80.5
X93.5Y-77.0
X94.5Y-77.0
X95.5Y-77.0
T3
X77.5Y-87.5
X78.7Y-82.4
T4
X71.92Y-61.0
X71.92Y-66.25
X71.92Y-73.0
X72.177Y-130.65
X72.177Y-133.19
X72.177Y-135.73
X72.177Y-138.27
X72.177Y-140.81
X72.177Y-143.35
X72.177Y-145.89
X72.177Y-148.43
X72.19Y-106.8
X72.19Y-109.34
X72.19Y-111.88
X72.19Y-114.42
X72.19Y-116.96
X72.19Y-119.5
X72.19Y-122.04
X72.19Y-124.58
X79.797Y-130.65
X79.797Y-133.19
X79.797Y-135.73
X79.797Y-138.27
X79.797Y-140.81
X79.797Y-143.35
X79.797Y-145.89
X79.797Y-148.43
X79.81Y-106.8
X79.81Y-109.34
X79.81Y-111.88
X79.81Y-114.42
X79.81Y-116.96
X79.81Y-119.5
X79.81Y-122.04
X79.81Y-124.58
X82.08Y-61.0
X82.08Y-66.25
X82.08Y-73.0
X87.677Y-128.09
X87.677Y-130.63
X87.677Y-133.17
X87.677Y-135.71
X87.677Y-138.25
X87.677Y-140.79
X87.677Y-143.33
X87.677Y-145.87
X87.677Y-148.41
X87.69Y-104.24
X87.69Y-106.78
X87.69Y-109.32
X87.69Y-111.86
X87.69Y-114.4
X87.69Y-116.94
X87.69Y-119.48
X87.69Y-122.02
X87.69Y-124.56
X89.19Y-52.84
X89.19Y-55.38
X89.19Y-57.92
X89.19Y-60.46
X89.19Y-63.0
X89.19Y-65.54
X89.19Y-68.08
X89.19Y-70.62
X89.19Y-78.84
X89.19Y-81.38
X89.19Y-83.92
X89.19Y-86.46
X89.19Y-89.0
X89.19Y-91.54
X89.19Y-94.08
X89.19Y-96.62
X92.177Y-130.61
X92.177Y-133.15
X92.177Y-135.69
X92.177Y-138.23
X92.177Y-140.77
X92.177Y-143.31
X92.177Y-145.85
X92.177Y-148.39
X92.19Y-106.76
X92.19Y-109.3
X92.19Y-111.84
X92.19Y-114.38
X92.19Y-116.92
X92.19Y-119.46
X92.19Y-122.0
X92.19Y-124.54
X96.81Y-52.84
X96.81Y-55.38
X96.81Y-57.92
X96.81Y-60.46
X96.81Y-63.0
X96.81Y-65.54
X96.81Y-68.08
X96.81Y-70.62
X96.81Y-78.84
X96.81Y-81.38
X96.81Y-83.92
X96.81Y-86.46
X96.81Y-89.0
X96.81Y-91.54
X96.81Y-94.08
X96.81Y-96.62
X99.797Y-130.61
X99.797Y-133.15
X99.797Y-135.69
X99.797Y-138.23
X99.797Y-140.77
X99.797Y-143.31
X99.797Y-145.85
X99.797Y-148.39
X99.81Y-106.76
X99.81Y-109.3
X99.81Y-111.84
X99.81Y-114.38
X99.81Y-116.92
X99.81Y-119.46
X99.81Y-122.0
X99.81Y-124.54
X101.69Y-51.84
X101.69Y-54.38
X101.69Y-56.92
X101.69Y-59.46
X101.69Y-62.0
X101.69Y-64.54
X101.69Y-67.08
X101.69Y-69.62
X101.69Y-72.16
X101.69Y-77.84
X101.69Y-80.38
X101.69Y-82.92
X101.69Y-85.46
X101.69Y-88.0
X101.69Y-90.54
X101.69Y-93.08
X101.69Y-95.62
X101.69Y-98.16
X107.177Y-106.8
X107.177Y-109.34
X107.177Y-111.88
X107.177Y-114.42
X107.177Y-116.96
X107.177Y-119.5
X107.177Y-122.04
X107.177Y-124.58
X107.177Y-130.65
X107.177Y-133.19
X107.177Y-135.73
X107.177Y-138.27
X107.177Y-140.81
X107.177Y-143.35
X107.177Y-145.89
X107.177Y-148.43
X109.31Y-51.84
X109.31Y-54.38
X109.31Y-56.92
X109.31Y-59.46
X109.31Y-62.0
X109.31Y-64.54
X109.31Y-67.08
X109.31Y-69.62
X109.31Y-72.16
X109.31Y-77.84
X109.31Y-80.38
X109.31Y-82.92
X109.31Y-85.46
X109.31Y-88.0
X109.31Y-90.54
X109.31Y-93.08
X109.31Y-95.62
X109.31Y-98.16
X114.797Y-106.8
X114.797Y-109.34
X114.797Y-111.88
X114.797Y-114.42
X114.797Y-116.96
X114.797Y-119.5
X114.797Y-122.04
X114.797Y-124.58
X114.797Y-130.65
X114.797Y-133.19
X114.797Y-135.73
X114.797Y-138.27
X114.797Y-140.81
X114.797Y-143.35
X114.797Y-145.89
X114.797Y-148.43
X116.605Y-52.84
X116.605Y-55.38
X116.605Y-57.92
X116.605Y-60.46
X116.605Y-63.0
X116.605Y-65.54
X116.605Y-68.08
X116.605Y-70.62
X116.605Y-78.84
X116.605Y-81.38
X116.605Y-83.92
X116.605Y-86.46
X116.605Y-89.0
X116.605Y-91.54
X116.605Y-94.08
X116.605Y-96.62
X122.677Y-104.24
X122.677Y-106.78
X122.677Y-109.32
X122.677Y-111.86
X122.677Y-114.4
X122.677Y-116.94
X122.677Y-119.48
X122.677Y-122.02
X122.677Y-124.56
X122.677Y-128.09
X122.677Y-130.63
X122.677Y-133.17
X122.677Y-135.71
X122.677Y-138.25
X122.677Y-140.79
X122.677Y-143.33
X122.677Y-145.87
X122.677Y-148.41
X124.225Y-52.84
X124.225Y-55.38
X124.225Y-57.92
X124.225Y-60.46
X124.225Y-63.0
X124.225Y-65.54
X124.225Y-68.08
X124.225Y-70.62
X124.225Y-78.84
X124.225Y-81.38
X124.225Y-83.92
X124.225Y-86.46
X124.225Y-89.0
X124.225Y-91.54
X124.225Y-94.08
X124.225Y-96.62
X127.177Y-106.76
X127.177Y-109.3
X127.177Y-111.84
X127.177Y-114.38
X127.177Y-116.92
X127.177Y-119.46
X127.177Y-122.0
X127.177Y-124.54
X127.177Y-130.61
X127.177Y-133.15
X127.177Y-135.69
X127.177Y-138.23
X127.177Y-140.77
X127.177Y-143.31
X127.177Y-145.85
X127.177Y-148.39
X129.105Y-51.84
X129.105Y-54.38
X129.105Y-56.92
X129.105Y-59.46
X129.105Y-62.0
X129.105Y-64.54
X129.105Y-67.08
X129.105Y-69.62
X129.105Y-72.16
X129.105Y-77.84
X129.105Y-80.38
X129.105Y-82.92
X129.105Y-85.46
X129.105Y-88.0
X129.105Y-90.54
X129.105Y-93.08
X129.105Y-95.62
X129.105Y-98.16
X134.797Y-106.76
X134.797Y-109.3
X134.797Y-111.84
X134.797Y-114.38
X134.797Y-116.92
X134.797Y-119.46
X134.797Y-122.0
X134.797Y-124.54
X134.797Y-130.61
X134.797Y-133.15
X134.797Y-135.69
X134.797Y-138.23
X134.797Y-140.77
X134.797Y-143.31
X134.797Y-145.85
X134.797Y-148.39
X136.725Y-51.84
X136.725Y-54.38
X136.725Y-56.92
X136.725Y-59.46
X136.725Y-62.0
X136.725Y-64.54
X136.725Y-67.08
X136.725Y-69.62
X136.725Y-72.16
X136.725Y-77.84
X136.725Y-80.38
X136.725Y-82.92
X136.725Y-85.46
X136.725Y-88.0
X136.725Y-90.54
X136.725Y-93.08
X136.725Y-95.62
X136.725Y-98.16
T5
X68.42Y-59.73
X68.42Y-62.27
X68.42Y-65.115
X68.42Y-67.655
X68.42Y-72.0
X68.42Y-74.54
T6
X52.19Y-53.5
X52.19Y-56.04
X52.5Y-145.46
X52.5Y-148.0
X54.73Y-53.5
X54.73Y-56.04
X55.04Y-145.46
X55.04Y-148.0
X57.27Y-53.5
X57.27Y-56.04
X57.58Y-145.46
X57.58Y-148.0
X59.81Y-53.5
X59.81Y-56.04
X60.12Y-145.46
X60.12Y-148.0
X143.5Y-54.06
X143.5Y-56.6
X143.5Y-59.14
X143.5Y-61.68
X143.5Y-64.22
X143.5Y-66.76
X143.5Y-69.3
X143.5Y-71.84
X143.5Y-74.38
X143.5Y-76.92
X143.5Y-79.46
X143.5Y-82.0
X143.5Y-84.54
X143.5Y-87.08
X143.5Y-89.62
X143.5Y-92.16
X143.5Y-94.7
X143.5Y-105.4
X143.5Y-107.94
X143.5Y-110.48
X143.5Y-113.02
X143.5Y-115.56
X143.5Y-118.1
X143.5Y-120.64
X143.5Y-123.18
X143.5Y-125.72
X143.5Y-128.26
X143.5Y-130.8
X143.5Y-133.34
X143.5Y-135.88
X143.5Y-138.42
X143.5Y-140.96
X143.5Y-143.5
X143.5Y-146.04
X146.04Y-54.06
X146.04Y-56.6
X146.04Y-59.14
X146.04Y-61.68
X146.04Y-64.22
X146.04Y-66.76
X146.04Y-69.3
X146.04Y-71.84
X146.04Y-74.38
X146.04Y-76.92
X146.04Y-79.46
X146.04Y-82.0
X146.04Y-84.54
X146.04Y-87.08
X146.04Y-89.62
X146.04Y-92.16
X146.04Y-94.7
X146.04Y-105.4
X146.04Y-107.94
X146.04Y-110.48
X146.04Y-113.02
X146.04Y-115.56
X146.04Y-118.1
X146.04Y-120.64
X146.04Y-123.18
X146.04Y-125.72
X146.04Y-128.26
X146.04Y-130.8
X146.04Y-133.34
X146.04Y-135.88
X146.04Y-138.42
X146.04Y-140.96
X146.04Y-143.5
X146.04Y-146.04
T7
X71.5Y-82.8
X71.5Y-87.5
X71.5Y-92.0
T8
X64.86Y-95.74
X64.86Y-99.94
T6
G00X58.5Y-80.042
M15
G01X58.5Y-82.042
M16
G05
G00X60.5Y-85.742
M15
G01X62.5Y-85.742
M16
G05
G00X64.5Y-80.042
M15
G01X64.5Y-82.042
M16
G05
M30
