%TF.GenerationSoftware,KiCad,Pcbnew,10.0.5*%
%TF.CreationDate,2026-09-30T15:48:44+10:00*%
%TF.ProjectId,interfaceBoard,696e7465-7266-4616-9365-426f6172642e,rev?*%
%TF.SameCoordinates,Original*%
%TF.FileFunction,Soldermask,Top*%
%TF.FilePolarity,Negative*%
%FSLAX46Y46*%
G04 Gerber Fmt 4.6, Leading zero omitted, Abs format (unit mm)*
G04 Created by KiCad (PCBNEW 10.0.5) date 2026-09-30 15:48:44*
%MOMM*%
%LPD*%
G01*
G04 APERTURE LIST*
G04 Aperture macros list*
%AMRoundRect*
0 Rectangle with rounded corners*
0 $1 Rounding radius*
0 $2 $3 $4 $5 $6 $7 $8 $9 X,Y pos of 4 corners*
0 Add a 4 corners polygon primitive as box body*
4,1,4,$2,$3,$4,$5,$6,$7,$8,$9,$2,$3,0*
0 Add four circle primitives for the rounded corners*
1,1,$1+$1,$2,$3*
1,1,$1+$1,$4,$5*
1,1,$1+$1,$6,$7*
1,1,$1+$1,$8,$9*
0 Add four rect primitives between the rounded corners*
20,1,$1+$1,$2,$3,$4,$5,0*
20,1,$1+$1,$4,$5,$6,$7,0*
20,1,$1+$1,$6,$7,$8,$9,0*
20,1,$1+$1,$8,$9,$2,$3,0*%
G04 Aperture macros list end*
%ADD10C,1.600000*%
%ADD11RoundRect,0.390000X-0.910000X0.910000X-0.910000X-0.910000X0.910000X-0.910000X0.910000X0.910000X0*%
%ADD12RoundRect,0.250000X0.550000X0.550000X-0.550000X0.550000X-0.550000X-0.550000X0.550000X-0.550000X0*%
%ADD13RoundRect,0.250000X-0.550000X-0.550000X0.550000X-0.550000X0.550000X0.550000X-0.550000X0.550000X0*%
%ADD14R,1.600000X1.600000*%
%ADD15R,1.700000X1.700000*%
%ADD16C,1.700000*%
%ADD17R,1.800000X1.800000*%
%ADD18C,1.800000*%
%ADD19C,2.362200*%
%ADD20R,3.500000X3.500000*%
%ADD21RoundRect,0.750000X-0.750000X-1.000000X0.750000X-1.000000X0.750000X1.000000X-0.750000X1.000000X0*%
%ADD22RoundRect,0.875000X-0.875000X-0.875000X0.875000X-0.875000X0.875000X0.875000X-0.875000X0.875000X0*%
%ADD23C,1.710000*%
G04 APERTURE END LIST*
D10*
%TO.C,R1*%
X82080000Y-66250000D03*
X71920000Y-66250000D03*
%TD*%
D11*
%TO.C,SW1*%
X71500000Y-82800000D03*
X71500000Y-87500000D03*
X71500000Y-92000000D03*
%TD*%
D12*
%TO.C,U4*%
X124225000Y-96620000D03*
D10*
X124225000Y-94080000D03*
X124225000Y-91540000D03*
X124225000Y-89000000D03*
X124225000Y-86460000D03*
X124225000Y-83920000D03*
X124225000Y-81380000D03*
X124225000Y-78840000D03*
X116605000Y-78840000D03*
X116605000Y-81380000D03*
X116605000Y-83920000D03*
X116605000Y-86460000D03*
X116605000Y-89000000D03*
X116605000Y-91540000D03*
X116605000Y-94080000D03*
X116605000Y-96620000D03*
%TD*%
D13*
%TO.C,U2*%
X101690000Y-77840000D03*
D10*
X101690000Y-80380000D03*
X101690000Y-82920000D03*
X101690000Y-85460000D03*
X101690000Y-88000000D03*
X101690000Y-90540000D03*
X101690000Y-93080000D03*
X101690000Y-95620000D03*
X101690000Y-98160000D03*
X109310000Y-98160000D03*
X109310000Y-95620000D03*
X109310000Y-93080000D03*
X109310000Y-90540000D03*
X109310000Y-88000000D03*
X109310000Y-85460000D03*
X109310000Y-82920000D03*
X109310000Y-80380000D03*
X109310000Y-77840000D03*
%TD*%
D12*
%TO.C,U10*%
X124225000Y-70620000D03*
D10*
X124225000Y-68080000D03*
X124225000Y-65540000D03*
X124225000Y-63000000D03*
X124225000Y-60460000D03*
X124225000Y-57920000D03*
X124225000Y-55380000D03*
X124225000Y-52840000D03*
X116605000Y-52840000D03*
X116605000Y-55380000D03*
X116605000Y-57920000D03*
X116605000Y-60460000D03*
X116605000Y-63000000D03*
X116605000Y-65540000D03*
X116605000Y-68080000D03*
X116605000Y-70620000D03*
%TD*%
D13*
%TO.C,U12*%
X107177500Y-106800000D03*
D10*
X107177500Y-109340000D03*
X107177500Y-111880000D03*
X107177500Y-114420000D03*
X107177500Y-116960000D03*
X107177500Y-119500000D03*
X107177500Y-122040000D03*
X107177500Y-124580000D03*
X114797500Y-124580000D03*
X114797500Y-122040000D03*
X114797500Y-119500000D03*
X114797500Y-116960000D03*
X114797500Y-114420000D03*
X114797500Y-111880000D03*
X114797500Y-109340000D03*
X114797500Y-106800000D03*
%TD*%
D14*
%TO.C,RN2*%
X87677500Y-128090000D03*
D10*
X87677500Y-130630000D03*
X87677500Y-133170000D03*
X87677500Y-135710000D03*
X87677500Y-138250000D03*
X87677500Y-140790000D03*
X87677500Y-143330000D03*
X87677500Y-145870000D03*
X87677500Y-148410000D03*
%TD*%
D15*
%TO.C,J5*%
X52500000Y-148000000D03*
D16*
X52500000Y-145460000D03*
X55040000Y-148000000D03*
X55040000Y-145460000D03*
X57580000Y-148000000D03*
X57580000Y-145460000D03*
X60120000Y-148000000D03*
X60120000Y-145460000D03*
%TD*%
D17*
%TO.C,D1*%
X68420000Y-59730000D03*
D18*
X68420000Y-62270000D03*
%TD*%
D15*
%TO.C,J3*%
X59810000Y-53500000D03*
D16*
X59810000Y-56040000D03*
X57270000Y-53500000D03*
X57270000Y-56040000D03*
X54730000Y-53500000D03*
X54730000Y-56040000D03*
X52190000Y-53500000D03*
X52190000Y-56040000D03*
%TD*%
D12*
%TO.C,U7*%
X96810000Y-70620000D03*
D10*
X96810000Y-68080000D03*
X96810000Y-65540000D03*
X96810000Y-63000000D03*
X96810000Y-60460000D03*
X96810000Y-57920000D03*
X96810000Y-55380000D03*
X96810000Y-52840000D03*
X89190000Y-52840000D03*
X89190000Y-55380000D03*
X89190000Y-57920000D03*
X89190000Y-60460000D03*
X89190000Y-63000000D03*
X89190000Y-65540000D03*
X89190000Y-68080000D03*
X89190000Y-70620000D03*
%TD*%
D13*
%TO.C,U5*%
X129105000Y-77840000D03*
D10*
X129105000Y-80380000D03*
X129105000Y-82920000D03*
X129105000Y-85460000D03*
X129105000Y-88000000D03*
X129105000Y-90540000D03*
X129105000Y-93080000D03*
X129105000Y-95620000D03*
X129105000Y-98160000D03*
X136725000Y-98160000D03*
X136725000Y-95620000D03*
X136725000Y-93080000D03*
X136725000Y-90540000D03*
X136725000Y-88000000D03*
X136725000Y-85460000D03*
X136725000Y-82920000D03*
X136725000Y-80380000D03*
X136725000Y-77840000D03*
%TD*%
%TO.C,R2*%
X82080000Y-61000000D03*
X71920000Y-61000000D03*
%TD*%
D13*
%TO.C,RN7*%
X127177500Y-106760000D03*
D10*
X127177500Y-109300000D03*
X127177500Y-111840000D03*
X127177500Y-114380000D03*
X127177500Y-116920000D03*
X127177500Y-119460000D03*
X127177500Y-122000000D03*
X127177500Y-124540000D03*
X134797500Y-124540000D03*
X134797500Y-122000000D03*
X134797500Y-119460000D03*
X134797500Y-116920000D03*
X134797500Y-114380000D03*
X134797500Y-111840000D03*
X134797500Y-109300000D03*
X134797500Y-106760000D03*
%TD*%
D14*
%TO.C,RN8*%
X122677500Y-104240000D03*
D10*
X122677500Y-106780000D03*
X122677500Y-109320000D03*
X122677500Y-111860000D03*
X122677500Y-114400000D03*
X122677500Y-116940000D03*
X122677500Y-119480000D03*
X122677500Y-122020000D03*
X122677500Y-124560000D03*
%TD*%
%TO.C,R3*%
X82080000Y-73000000D03*
X71920000Y-73000000D03*
%TD*%
D14*
%TO.C,RN4*%
X122677500Y-128090000D03*
D10*
X122677500Y-130630000D03*
X122677500Y-133170000D03*
X122677500Y-135710000D03*
X122677500Y-138250000D03*
X122677500Y-140790000D03*
X122677500Y-143330000D03*
X122677500Y-145870000D03*
X122677500Y-148410000D03*
%TD*%
D19*
%TO.C,J1*%
X64860251Y-99939600D03*
X64860251Y-95739602D03*
%TD*%
D13*
%TO.C,U11*%
X129105000Y-51840000D03*
D10*
X129105000Y-54380000D03*
X129105000Y-56920000D03*
X129105000Y-59460000D03*
X129105000Y-62000000D03*
X129105000Y-64540000D03*
X129105000Y-67080000D03*
X129105000Y-69620000D03*
X129105000Y-72160000D03*
X136725000Y-72160000D03*
X136725000Y-69620000D03*
X136725000Y-67080000D03*
X136725000Y-64540000D03*
X136725000Y-62000000D03*
X136725000Y-59460000D03*
X136725000Y-56920000D03*
X136725000Y-54380000D03*
X136725000Y-51840000D03*
%TD*%
D13*
%TO.C,RN5*%
X92190000Y-106760000D03*
D10*
X92190000Y-109300000D03*
X92190000Y-111840000D03*
X92190000Y-114380000D03*
X92190000Y-116920000D03*
X92190000Y-119460000D03*
X92190000Y-122000000D03*
X92190000Y-124540000D03*
X99810000Y-124540000D03*
X99810000Y-122000000D03*
X99810000Y-119460000D03*
X99810000Y-116920000D03*
X99810000Y-114380000D03*
X99810000Y-111840000D03*
X99810000Y-109300000D03*
X99810000Y-106760000D03*
%TD*%
D15*
%TO.C,J4*%
X146040000Y-146040000D03*
D16*
X143500000Y-146040000D03*
X146040000Y-143500000D03*
X143500000Y-143500000D03*
X146040000Y-140960000D03*
X143500000Y-140960000D03*
X146040000Y-138420000D03*
X143500000Y-138420000D03*
X146040000Y-135880000D03*
X143500000Y-135880000D03*
X146040000Y-133340000D03*
X143500000Y-133340000D03*
X146040000Y-130800000D03*
X143500000Y-130800000D03*
X146040000Y-128260000D03*
X143500000Y-128260000D03*
X146040000Y-125720000D03*
X143500000Y-125720000D03*
X146040000Y-123180000D03*
X143500000Y-123180000D03*
X146040000Y-120640000D03*
X143500000Y-120640000D03*
X146040000Y-118100000D03*
X143500000Y-118100000D03*
X146040000Y-115560000D03*
X143500000Y-115560000D03*
X146040000Y-113020000D03*
X143500000Y-113020000D03*
X146040000Y-110480000D03*
X143500000Y-110480000D03*
X146040000Y-107940000D03*
X143500000Y-107940000D03*
X146040000Y-105400000D03*
X143500000Y-105400000D03*
%TD*%
D17*
%TO.C,D2*%
X68420000Y-65115000D03*
D18*
X68420000Y-67655000D03*
%TD*%
D15*
%TO.C,J6*%
X146040000Y-94700000D03*
D16*
X143500000Y-94700000D03*
X146040000Y-92160000D03*
X143500000Y-92160000D03*
X146040000Y-89620000D03*
X143500000Y-89620000D03*
X146040000Y-87080000D03*
X143500000Y-87080000D03*
X146040000Y-84540000D03*
X143500000Y-84540000D03*
X146040000Y-82000000D03*
X143500000Y-82000000D03*
X146040000Y-79460000D03*
X143500000Y-79460000D03*
X146040000Y-76920000D03*
X143500000Y-76920000D03*
X146040000Y-74380000D03*
X143500000Y-74380000D03*
X146040000Y-71840000D03*
X143500000Y-71840000D03*
X146040000Y-69300000D03*
X143500000Y-69300000D03*
X146040000Y-66760000D03*
X143500000Y-66760000D03*
X146040000Y-64220000D03*
X143500000Y-64220000D03*
X146040000Y-61680000D03*
X143500000Y-61680000D03*
X146040000Y-59140000D03*
X143500000Y-59140000D03*
X146040000Y-56600000D03*
X143500000Y-56600000D03*
X146040000Y-54060000D03*
X143500000Y-54060000D03*
%TD*%
D20*
%TO.C,J2*%
X64500000Y-81042500D03*
D21*
X58500000Y-81042500D03*
D22*
X61500000Y-85742500D03*
%TD*%
D12*
%TO.C,U1*%
X96810000Y-96620000D03*
D10*
X96810000Y-94080000D03*
X96810000Y-91540000D03*
X96810000Y-89000000D03*
X96810000Y-86460000D03*
X96810000Y-83920000D03*
X96810000Y-81380000D03*
X96810000Y-78840000D03*
X89190000Y-78840000D03*
X89190000Y-81380000D03*
X89190000Y-83920000D03*
X89190000Y-86460000D03*
X89190000Y-89000000D03*
X89190000Y-91540000D03*
X89190000Y-94080000D03*
X89190000Y-96620000D03*
%TD*%
D13*
%TO.C,U9*%
X72190000Y-106800000D03*
D10*
X72190000Y-109340000D03*
X72190000Y-111880000D03*
X72190000Y-114420000D03*
X72190000Y-116960000D03*
X72190000Y-119500000D03*
X72190000Y-122040000D03*
X72190000Y-124580000D03*
X79810000Y-124580000D03*
X79810000Y-122040000D03*
X79810000Y-119500000D03*
X79810000Y-116960000D03*
X79810000Y-114420000D03*
X79810000Y-111880000D03*
X79810000Y-109340000D03*
X79810000Y-106800000D03*
%TD*%
D14*
%TO.C,RN6*%
X87690000Y-104240000D03*
D10*
X87690000Y-106780000D03*
X87690000Y-109320000D03*
X87690000Y-111860000D03*
X87690000Y-114400000D03*
X87690000Y-116940000D03*
X87690000Y-119480000D03*
X87690000Y-122020000D03*
X87690000Y-124560000D03*
%TD*%
D13*
%TO.C,RN3*%
X127177500Y-130610000D03*
D10*
X127177500Y-133150000D03*
X127177500Y-135690000D03*
X127177500Y-138230000D03*
X127177500Y-140770000D03*
X127177500Y-143310000D03*
X127177500Y-145850000D03*
X127177500Y-148390000D03*
X134797500Y-148390000D03*
X134797500Y-145850000D03*
X134797500Y-143310000D03*
X134797500Y-140770000D03*
X134797500Y-138230000D03*
X134797500Y-135690000D03*
X134797500Y-133150000D03*
X134797500Y-130610000D03*
%TD*%
D13*
%TO.C,U8*%
X101690000Y-51840000D03*
D10*
X101690000Y-54380000D03*
X101690000Y-56920000D03*
X101690000Y-59460000D03*
X101690000Y-62000000D03*
X101690000Y-64540000D03*
X101690000Y-67080000D03*
X101690000Y-69620000D03*
X101690000Y-72160000D03*
X109310000Y-72160000D03*
X109310000Y-69620000D03*
X109310000Y-67080000D03*
X109310000Y-64540000D03*
X109310000Y-62000000D03*
X109310000Y-59460000D03*
X109310000Y-56920000D03*
X109310000Y-54380000D03*
X109310000Y-51840000D03*
%TD*%
D17*
%TO.C,D3*%
X68420000Y-72000000D03*
D18*
X68420000Y-74540000D03*
%TD*%
D13*
%TO.C,U3*%
X72177500Y-130650000D03*
D10*
X72177500Y-133190000D03*
X72177500Y-135730000D03*
X72177500Y-138270000D03*
X72177500Y-140810000D03*
X72177500Y-143350000D03*
X72177500Y-145890000D03*
X72177500Y-148430000D03*
X79797500Y-148430000D03*
X79797500Y-145890000D03*
X79797500Y-143350000D03*
X79797500Y-140810000D03*
X79797500Y-138270000D03*
X79797500Y-135730000D03*
X79797500Y-133190000D03*
X79797500Y-130650000D03*
%TD*%
D13*
%TO.C,RN1*%
X92177500Y-130610000D03*
D10*
X92177500Y-133150000D03*
X92177500Y-135690000D03*
X92177500Y-138230000D03*
X92177500Y-140770000D03*
X92177500Y-143310000D03*
X92177500Y-145850000D03*
X92177500Y-148390000D03*
X99797500Y-148390000D03*
X99797500Y-145850000D03*
X99797500Y-143310000D03*
X99797500Y-140770000D03*
X99797500Y-138230000D03*
X99797500Y-135690000D03*
X99797500Y-133150000D03*
X99797500Y-130610000D03*
%TD*%
D23*
%TO.C,F1*%
X77500000Y-87500000D03*
X78700000Y-82400000D03*
%TD*%
D13*
%TO.C,U6*%
X107177500Y-130650000D03*
D10*
X107177500Y-133190000D03*
X107177500Y-135730000D03*
X107177500Y-138270000D03*
X107177500Y-140810000D03*
X107177500Y-143350000D03*
X107177500Y-145890000D03*
X107177500Y-148430000D03*
X114797500Y-148430000D03*
X114797500Y-145890000D03*
X114797500Y-143350000D03*
X114797500Y-140810000D03*
X114797500Y-138270000D03*
X114797500Y-135730000D03*
X114797500Y-133190000D03*
X114797500Y-130650000D03*
%TD*%
M02*
